<?xml version="1.0" encoding="utf-8"?>
<!-- Generator: Adobe Illustrator 25.4.0, SVG Export Plug-In . SVG Version: 6.00 Build 0)  -->
<svg version="1.1"
	 id="svg4160" inkscape:version="1.0.2 (e86c870879, 2021-01-15, custom)" sodipodi:docname="klipper.svg" xmlns:cc="http://creativecommons.org/ns#" xmlns:dc="http://purl.org/dc/elements/1.1/" xmlns:inkscape="http://www.inkscape.org/namespaces/inkscape" xmlns:rdf="http://www.w3.org/1999/02/22-rdf-syntax-ns#" xmlns:sodipodi="http://sodipodi.sourceforge.net/DTD/sodipodi-0.dtd" xmlns:svg="http://www.w3.org/2000/svg"
	 xmlns="http://www.w3.org/2000/svg" xmlns:xlink="http://www.w3.org/1999/xlink" x="0px" y="0px" viewBox="0 0 64 64"
	 style="enable-background:new 0 0 64 64;" xml:space="preserve">
<style type="text/css">
	.st0{fill-rule:evenodd;clip-rule:evenodd;}
	.st1{fill-rule:evenodd;clip-rule:evenodd;fill:#B96AA2;}
	.st2{fill:#B7649F;}
	.st3{font-family:'AlibabaPuHuiTi-Bold';}
	.st4{font-size:5.6528px;}
	.st5{fill:#A9A5A7;}
	.st6{font-family:'AlibabaPuHuiTi-Medium';}
	.st7{font-size:6.7127px;}
</style>
<sodipodi:namedview  bordercolor="#666666" borderopacity="1" gridtolerance="10" guidetolerance="10" id="namedview8" inkscape:bbox-nodes="true" inkscape:bbox-paths="true" inkscape:current-layer="layer2" inkscape:cx="27.157851" inkscape:cy="34.186983" inkscape:document-rotation="0" inkscape:pagecheckerboard="true" inkscape:pageopacity="0" inkscape:pageshadow="2" inkscape:snap-bbox="true" inkscape:snap-bbox-edge-midpoints="true" inkscape:snap-bbox-midpoints="true" inkscape:window-height="837" inkscape:window-maximized="1" inkscape:window-width="1600" inkscape:window-x="-8" inkscape:window-y="-8" inkscape:zoom="9.453125" objecttolerance="10" pagecolor="#ffffff" showgrid="false">
	<inkscape:grid  id="grid832" type="xygrid"></inkscape:grid>
</sodipodi:namedview>
<g id="LOGO">
	<g id="矩形">
		<g>
			<path id="path-1_00000010288447804530774610000006654852751135276196_" class="st0" d="M15.7,9.2c0.1-0.6,1.4-0.8,4-0.4
				c1.7,0.2,3.9,1,6.6,1.7c1.1,0.3,3,0.7,5.6,1.2c3.6,0.5,6,0.8,7.1,1c1,0.1,6.9,0.6,7.9,1.2c2.4,1.5,5.8,4.1,7.1,6.3
				c0.7,1.2,3.6,4,3.7,4.8c0,0.2-0.7,4.2-1.8,6.3c-1.7,3.1-4.2,4.7-4.5,4.7c-0.1,0-3,3-5.2,6.5c-3,4.9-5.6,10.6-5.8,10.1
				c-0.1-0.2,0.8-4.2,1.7-9.2c0.6-3.4,1-7.6,2.1-9.8c0.4-0.8,1.5-0.7,3.1-0.7c1.3,0,2.5-0.2,3-0.4c0.5-0.2,0.9-0.4,1.1-0.7
				c0.8-0.9,1.5-1.7,2.3-2.8c1-1.4,1-3.5,1-3.5c-0.4-0.3-1.3-1-3.7-3.4c-1.6-1.6-3.6-4.1-7.7-5.6c-1.4-0.5-3.7-0.5-7-0.7
				c-2.3-0.2-6.8-0.4-13.5-0.7c1.4,1.6,2.7,2.6,3.7,2.8c2,0.5,4.2,0.3,5.7,0.4c2.8,0.3,4.2,0.7,4,0.9c-0.2,0.3-4.3,5.5-5.7,6.9
				c-0.6,0.6-3.3,4.4-4.1,4.2c-0.8-0.2,4-6.1,2.6-8.7c-0.3-0.6-1.6,0-3.5-0.3c-1-0.2-2.8-0.7-5.4-1.6c-2.1-1.1-3.4-2.4-4-3.7
				c-0.3-0.8-1.2-3-1.3-4.4C15,11,15.2,10.2,15.7,9.2z"/>
		</g>
		<g>
			<path id="path-1_00000011731200628410627490000016991739685674472840_" class="st1" d="M15.7,9.2c0.1-0.6,1.4-0.8,4-0.4
				c1.7,0.2,3.9,1,6.6,1.7c1.1,0.3,3,0.7,5.6,1.2c3.6,0.5,6,0.8,7.1,1c1,0.1,6.9,0.6,7.9,1.2c2.4,1.5,5.8,4.1,7.1,6.3
				c0.7,1.2,3.6,4,3.7,4.8c0,0.2-0.7,4.2-1.8,6.3c-1.7,3.1-4.2,4.7-4.5,4.7c-0.1,0-3,3-5.2,6.5c-3,4.9-5.6,10.6-5.8,10.1
				c-0.1-0.2,0.8-4.2,1.7-9.2c0.6-3.4,1-7.6,2.1-9.8c0.4-0.8,1.5-0.7,3.1-0.7c1.3,0,2.5-0.2,3-0.4c0.5-0.2,0.9-0.4,1.1-0.7
				c0.8-0.9,1.5-1.7,2.3-2.8c1-1.4,1-3.5,1-3.5c-0.4-0.3-1.3-1-3.7-3.4c-1.6-1.6-3.6-4.1-7.7-5.6c-1.4-0.5-3.7-0.5-7-0.7
				c-2.3-0.2-6.8-0.4-13.5-0.7c1.4,1.6,2.7,2.6,3.7,2.8c2,0.5,4.2,0.3,5.7,0.4c2.8,0.3,4.2,0.7,4,0.9c-0.2,0.3-4.3,5.5-5.7,6.9
				c-0.6,0.6-3.3,4.4-4.1,4.2c-0.8-0.2,4-6.1,2.6-8.7c-0.3-0.6-1.6,0-3.5-0.3c-1-0.2-2.8-0.7-5.4-1.6c-2.1-1.1-3.4-2.4-4-3.7
				c-0.3-0.8-1.2-3-1.3-4.4C15,11,15.2,10.2,15.7,9.2z"/>
		</g>
	</g>
	<text transform="matrix(0.9403 0 0 1 7.4903 38.8055)" class="st2 st3 st4">Print Rabbit</text>
	<text transform="matrix(0.9403 0 0 1 9.9835 46.0223)" class="st5 st6 st7">粉兔先生</text>
	<g id="椭圆形">
		<g>
			<ellipse id="path-3_00000177455559745047820500000016373058590047720380_" class="st0" cx="44.6" cy="22.9" rx="2.1" ry="2.1"/>
		</g>
		<g>
			<ellipse id="path-3_00000007408706714785209480000015439053064754392227_" class="st1" cx="44.6" cy="22.9" rx="2.1" ry="2.1"/>
		</g>
	</g>
</g>
</svg>
