<?xml version="1.0" encoding="utf-8"?>
<!-- Generator: Adobe Illustrator 25.4.0, SVG Export Plug-In . SVG Version: 6.00 Build 0)  -->
<svg version="1.1" id="图层_1" xmlns="http://www.w3.org/2000/svg" xmlns:xlink="http://www.w3.org/1999/xlink" x="0px" y="0px"
	 viewBox="0 0 599.4 523.1" style="enable-background:new 0 0 599.4 523.1;" xml:space="preserve">
<style type="text/css">
	.st0{display:none;}
	.st1{display:inline;fill:#E73D26;}
	.st2{display:inline;fill:none;}
	.st3{filter:url(#filter-2);}
	.st4{fill-rule:evenodd;clip-rule:evenodd;}
	.st5{fill-rule:evenodd;clip-rule:evenodd;fill:#B96AA2;}
	.st6{fill:#B7649F;}
	.st7{font-family:'AlibabaPuHuiTi-Bold';}
	.st8{font-size:29.9924px;}
	.st9{fill:#A9A5A7;}
	.st10{font-family:'AlibabaPuHuiTi-Medium';}
	.st11{font-size:35.616px;}
	.st12{filter:url(#filter-4);}
</style>
<filter  filterUnits="objectBoundingBox" height="126.9%" id="filter-4" width="125.9%" x="-13.0%" y="-9.6%">
	<feOffset  dx="0" dy="2" in="SourceAlpha" result="shadowOffsetOuter1"></feOffset>
	<feGaussianBlur  in="shadowOffsetOuter1" result="shadowBlurOuter1" stdDeviation="2"></feGaussianBlur>
	<feColorMatrix  in="shadowBlurOuter1" type="matrix" values="0 0 0 0 0   0 0 0 0 0   0 0 0 0 0  0 0 0 0.5 0"></feColorMatrix>
</filter>
<filter  filterUnits="objectBoundingBox" height="102.6%" id="filter-2" width="102.5%" x="-1.3%" y="-0.9%">
	<feOffset  dx="0" dy="2" in="SourceAlpha" result="shadowOffsetOuter1"></feOffset>
	<feGaussianBlur  in="shadowOffsetOuter1" result="shadowBlurOuter1" stdDeviation="2"></feGaussianBlur>
	<feColorMatrix  in="shadowBlurOuter1" type="matrix" values="0 0 0 0 0   0 0 0 0 0   0 0 0 0 0  0 0 0 0.5 0"></feColorMatrix>
</filter>
<g id="Ebene_1" class="st0">
	<path class="st1" d="M-45.4,426.3c0.3,0.3,97.6,1.1,107,0.9c0.9-0.1,1.8-0.7,2.3-2.1c0.5-1.1,1.1-2,1.4-2s0.6-0.3,0.6-0.7
		c0-0.8,2.8-4.9,3.6-5.2c0.3-0.1,0.5-0.6,0.5-1.1c0-0.7,0.6-1.6,3.3-4.8c0.3-0.5,0.5-1,0.3-1.2c-0.3-0.2-0.1-0.4,0.3-0.4
		c0.5,0,0.8-0.5,0.8-1c0-0.5,0.5-1.2,1.1-1.5s1.1-0.9,1.1-1.2c0.1-0.5,3.1-5.6,3.9-6.3c0.2-0.2,0.9-1.4,1.6-2.7
		c0.7-1.3,1.5-2.5,1.7-2.7c0.6-0.5,3.4-4.6,3.4-5c0-0.2,1.9-3.2,4.4-6.7s4.4-6.7,4.4-7.1c0-0.3,0.2-0.7,0.5-0.9
		c0.5-0.3,3.5-4.4,3.5-4.9c0-0.2,0.3-0.7,0.7-1.2c0.3-0.5,2.2-3.2,4.2-6.2c1.9-3,3.6-5.5,3.8-5.7c0.2-0.2,0.7-1.1,1.3-2.1
		c0.5-1,1.5-2.5,2.2-3.2c0.7-0.7,1.2-1.5,1.2-1.7c0-0.6,13-20.2,13.7-20.6c0.3-0.2,0.5-0.6,0.3-0.8c-0.1-0.3,0.3-1,0.9-1.7
		c0.6-0.7,1.6-2.2,2.4-3.4c0.7-1.2,1.5-2.1,1.8-2.1c0.3,0,0.4-0.3,0.1-0.6c-0.2-0.3,0.1-1,0.5-1.5c1.5-1.5,5.2-7.1,5.2-7.9
		c0-0.4,0.3-0.7,0.7-0.7c0.4,0,0.7-0.5,0.7-1s0.3-1,0.7-1c0.4,0,0.7-0.4,0.7-0.9s0.3-1.1,0.5-1.2c0.3-0.1,1.3-1.4,2.1-2.9
		s1.9-3,2.1-3.4c1-1.2,9.3-13.9,9.3-14.2c0-0.3,4.2-6.5,5.2-7.5c0.4-0.5,1-1.5,1.2-2.2c0.2-0.7,0.7-1.3,1-1.3c0.3,0,0.7-0.5,0.9-1.2
		c0.4-1.1,1.8-3.6,2.5-4.2c0.2-0.2,2.1-3.2,4.4-6.7c2.1-3.4,4.5-6.9,5.1-7.5c0.7-0.7,1.1-1.3,0.9-1.3c-0.2,0,0.7-1.5,2-3.4
		c1.3-1.8,2.4-3.6,2.4-4c0-0.3,0.2-0.7,0.5-0.7c0.3,0,1.2-1.3,2.1-3c0.9-1.7,1.9-3,2.1-3c0.3,0,0.5-0.4,0.5-0.9
		c0-0.5,0.6-1.5,1.3-2.1c0.7-0.7,1.3-1.6,1.3-2.1c0-0.5,0.3-0.9,0.7-0.9c0.4,0,0.7-0.3,0.7-0.7c0-0.7,3.2-5.9,4.5-7.3
		c0.4-0.4,1-1.4,1.2-2.1s0.7-1.3,0.9-1.3c0.3,0,0.9-0.9,1.4-2c0.5-1.1,1.1-2,1.3-2c0.3,0,0.9-0.9,1.3-2c0.5-1.1,1.1-2,1.3-2
		c0.3,0,0.9-0.9,1.3-2c0.5-1.1,1.1-2,1.5-2s0.4-0.3,0.2-0.7c-0.2-0.4-0.2-0.7,0.1-0.7c0.3,0,1.4-1.6,2.6-3.4
		c1.1-1.9,2.2-3.4,2.6-3.4c0.3,0,0.4-0.3,0.2-0.6c-0.2-0.3,0.2-1.1,0.9-1.8s1.3-1.6,1.3-1.9s0.7-1.6,1.7-2.6c0.9-1,1.6-1.8,1.4-1.8
		c-0.3,0,8.9-14.2,10.4-15.9c0.3-0.5,0.7-1.1,0.7-1.6c0-0.3,0.3-0.7,0.7-0.7c0.4,0,0.7-0.5,0.7-1s0.3-1,0.7-1c0.4,0,0.7-0.3,0.7-0.7
		c0-0.4,1.1-2.2,2.4-4s2.4-3.5,2.4-3.7s0.6-1,1.3-1.8c0.7-0.8,1.3-1.9,1.3-2.4s0.3-0.9,0.7-0.9c0.3,0,0.5-0.3,0.3-0.5
		c-0.2-0.3,0.3-0.9,0.9-1.5s1.1-1.1,1-1.3c-0.2-0.3,0.3-1,1-1.7c0.7-0.7,1.3-1.5,1.3-1.8s2.4-4.1,5.2-8.5c3-4.4,8.3-12.5,11.9-18
		c3.6-5.6,6.9-10.3,7.3-10.6s0.5-0.5,0.1-0.5s-0.1-0.5,0.4-1.2c1-1.2,1.1-1.8,0.2-3.8c-2.9-6.9-5-12.8-5-13.5c0-0.5-0.3-0.9-0.7-0.9
		c-0.3,0-0.6-0.2-0.5-0.5c0.2-0.9-1.8-6.5-2.4-7c-0.4-0.3-0.5-0.7-0.2-0.9s0.2-0.8-0.1-1.2c-0.5-0.7-4-10.6-4.4-12.7
		c-0.1-0.5-0.4-1.3-0.6-2c-0.3-0.6-0.7-1.7-0.9-2.3c-0.2-0.6-0.5-1.6-0.6-2.2c-0.3-1.3-1.6-6-2.4-8.1c-0.3-0.9-0.7-2.3-0.7-3.2
		s-0.3-1.5-0.5-1.5c-0.3,0-0.5-0.4-0.5-0.9c0-0.4-0.2-1.4-0.4-2.2s-1-3.9-1.7-7.1c-0.7-3.2-1.3-5.8-1.4-5.9
		c-0.1-0.1-0.2-0.3-0.3-0.7c-0.3-1.3-1.3-5.9-1.4-6.5c-0.1-0.4-0.2-0.8-0.3-1c-0.2-0.4-0.5-2.2-0.9-5.4c-0.2-1.3-0.5-2.8-0.7-3.4
		c-0.3-0.6-0.4-1.3-0.3-1.7c0.1-0.3,0-0.7-0.1-0.9c-0.3-0.7-0.7-3.1-0.9-5.4c-0.1-1.3-0.3-2.3-0.4-2.3c-0.1,0-0.6-3.4-0.7-5.9
		c-0.1-1-0.4-2-0.7-2.2s-0.3-0.8,0.1-1.3c1.5-1.8-0.5-1.6-2.1,0.2l0,0c-0.9,1-2.2,3-3,4.4c-0.7,1.5-1.9,3.3-2.7,4.1s-1.9,2.6-2.7,4
		c-0.7,1.3-1.8,3-2.4,3.6c-0.5,0.6-1.6,2.2-2.4,3.5c-1.5,2.7-1.7,3-4,5.8c-0.9,1.2-1.7,2.4-1.7,2.5c0,0.5-6.7,10.6-7.3,11.2
		c-0.2,0.2-1,1.4-1.7,2.7c-0.7,1.3-1.5,2.5-1.7,2.7c-0.5,0.4-8.3,12-8.8,13.1 M294.2,171.1c-0.7,1.1-1.8,2.8-2.4,3.6
		c-0.5,0.8-1.7,2.6-2.5,3.8c-1.9,2.8-2.2,3.4-5.6,8.2c-1.5,2.1-2.7,4-2.7,4.2s-0.3,0.7-0.7,1.1c-0.3,0.5-4.2,6.2-8.7,12.9
		c-4.4,6.7-8.3,12.4-8.7,12.9c-0.4,0.5-0.7,0.9-0.7,1.1c0,0.6-4.3,6.8-4.8,7c-0.3,0.1-0.5,0.7-0.5,1.2s-0.3,0.9-0.7,0.9
		c-0.3,0-0.5,0.3-0.3,0.6c0.3,0.3,0.2,0.7-0.1,0.9c-0.8,0.3-4.9,6.4-4.9,7.2c0,0.3-0.5,1-1.1,1.3c-0.7,0.4-0.9,0.7-0.7,0.7
		s-0.1,0.7-0.9,1.5c-0.7,0.8-1.3,1.9-1.3,2.4s-0.2,0.9-0.5,0.9c-0.3,0-1.4,1.6-2.6,3.4c-1.1,1.9-2.3,3.8-2.7,4.2
		c-1.3,1.6-3.7,5-3.7,5.4c0,0.3-0.4,0.9-0.8,1.3c-1.9,2.1-2.5,2.9-2.2,3.2c0.1,0.1-0.5,1.1-1.3,2.1c-0.9,1.1-1.7,2.1-1.7,2.4
		s-0.6,1.1-1.3,2s-1.3,2-1.3,2.5s-0.3,0.8-0.6,0.6s-0.8,0.3-1,1.3c-0.3,0.9-0.7,1.7-1.1,1.7c-0.4,0-0.7,0.3-0.7,0.7
		c0,0.8-2.8,4.9-3.5,5.2c-0.3,0.1-0.5,0.5-0.5,0.8c0,0.8-4.2,7-4.8,7.3c-0.3,0.1-0.5,0.5-0.5,0.9c0,0.7-4.1,6.8-4.8,7.1
		c-0.3,0.1-0.5,0.5-0.5,0.9c0,0.9-4.9,8-5.6,8c-0.3,0-0.4,0.3-0.1,0.6c0.2,0.3-0.1,1-0.5,1.5c-0.5,0.5-2.6,3.4-4.6,6.6s-3.8,5.9-4,6
		c-0.4,0.4-2.9,4-3.4,5c-1,2-31.3,47.1-31.9,47.5c-0.4,0.3-0.5,0.5-0.1,0.5s0.1,0.7-0.7,1.5c-1.6,1.8-4.8,6.7-4.8,7.5
		c0,0.3-0.7,1.1-1.6,1.9c-0.8,0.7-1.2,1.3-0.9,1.3c0.3,0-0.1,0.7-1,1.7s-1.3,1.7-0.9,1.7s0.3,0.3-0.1,0.5c-0.9,0.7-3.8,4.8-5,7
		c-0.5,1.1-1.2,1.9-1.6,1.9c-0.3,0-0.5,0.3-0.5,0.7c0,0.3-1,2.1-2.2,3.8c-1.3,1.8-2.5,3.8-2.7,4.4c-0.3,0.7-0.7,1.2-1.1,1.2
		c-0.3,0-0.7,0.5-0.7,1s-0.3,1-0.7,1c-0.3,0-0.7,0.3-0.7,0.6c0,0.4-2.3,4-5.1,8.1c-2.8,4.2-4.9,7.7-4.8,7.9
		c0.3,0.3,33.7,0.7,83.4,0.9c22.8,0.1,24.1,0.1,25.2-1.1c1.2-1.5,2.6-3.4,3.2-4.9c0.3-0.5,1-1.6,1.7-2.3c0.6-0.7,1-1.5,0.8-1.9
		c-0.2-0.3-0.1-0.5,0.3-0.5s1.2-1,1.8-2.2c0.6-1.1,1.3-2.3,1.6-2.5c0.2-0.2,1.5-2.1,2.8-4.2c1.2-2.1,2.5-3.8,2.8-3.8
		c0.3,0,0.5-0.5,0.5-1s0.3-1,0.7-1c0.3,0,0.5-0.3,0.3-0.6c-0.3-0.3-0.2-0.7,0.1-0.9c0.8-0.3,3.6-4.4,3.6-5.2c0-0.3,0.3-0.7,0.7-0.7
		c0.4,0,0.7-0.5,0.7-1s0.3-1,0.5-1c0.3,0,0.9-0.7,1.4-1.5c0.4-0.8,1.3-2.4,2.1-3.5c0.7-1.1,1.7-2.7,2.1-3.6c0.5-0.8,1.1-1.5,1.4-1.5
		c0.3,0,0.5-0.4,0.5-0.9s0.5-1.5,1.2-2.2c0.6-0.7,1.5-2.1,2.1-3.1c0.5-1,1.6-2.5,2.4-3.4c0.8-0.8,1.4-1.7,1.3-1.9
		c-0.1-0.5,6-9.7,6.7-10c0.3-0.1,0.5-0.5,0.5-0.9c0-0.5,5.9-9.9,6.7-10.7c0.2-0.2,1.4-2,2.7-4c1.3-2,2.6-3.9,3-4.2
		c0.3-0.3,0.4-0.5,0.1-0.5c-0.3,0-0.1-0.5,0.3-1c2.1-2.3,2.4-2.9,2.1-3.3c-0.3-0.2-0.1-0.4,0.3-0.4c0.5,0,0.8-0.4,0.8-0.9
		s0.3-1.1,0.5-1.2c0.3-0.1,2-2.4,3.6-4.9c1.6-2.6,3.2-4.8,3.4-4.9c0.3-0.1,0.5-0.5,0.5-0.9c0-0.3,1.1-2.1,2.4-4
		c1.3-1.8,2.4-3.5,2.4-3.8c0-0.2,0.4-0.7,0.9-1.3c0.4-0.5,2.9-4.2,5.5-8.2c2.5-4,4.9-7.4,5.2-7.5c0.3-0.1,0.4-0.5,0.1-0.9
		c-0.2-0.3,0.1-0.8,0.7-1c0.6-0.2,1.1-0.7,1.1-1.1c0-0.4,1.1-2.2,2.4-4c1.3-1.8,2.4-3.4,2.4-3.5c0-0.3,11.2-17.3,12-18.3
		c0.3-0.4,1.1-1.8,1.9-3c0.7-1.3,1.7-2.6,2.1-2.9c0.4-0.3,0.8-0.9,0.8-1.2c0-0.4,0.7-1.7,1.7-2.9c0.9-1.2,1.7-2.5,1.7-3
		c0-0.5,0.3-0.8,0.5-0.8c0.3,0,0.9-0.7,1.3-1.6c0.6-1.3,0.3-2-2-5c-1.4-1.9-2.4-3.4-2.1-3.4s0.1-0.3-0.3-0.5c-0.9-0.5-7-9.5-7-10.2
		c0-0.3-0.6-1-1.3-1.7c-0.7-0.7-1.3-1.6-1.3-2.1c0-0.5-0.3-0.9-0.7-0.9c-0.3,0-0.7-0.4-0.7-0.9c0-0.5-0.3-1.1-0.5-1.2
		c-0.5-0.2-6.2-9-6.2-9.6c0-0.2-0.6-1-1.3-1.8c-0.7-0.8-1.3-1.9-1.3-2.4s-0.3-0.9-0.7-0.9c-0.3,0-0.7-0.3-0.7-0.6c0-0.4-0.9-2-2-3.6
		c-1.1-1.7-2-3.4-2-3.8c0-0.4-0.3-0.7-0.6-0.7s-0.7-0.5-0.9-1.2c-0.4-1.1-2.5-4.8-3.2-5.5c-0.2-0.2-1.1-1.7-2-3.4
		c-0.9-1.7-1.8-3.2-2-3.4c-0.3-0.2-0.8-1.1-1.2-2c-0.5-0.9-2.2-4.1-3.9-7.1c-1.8-3-3.3-5.9-3.5-6.6c-0.2-0.6-0.6-1.1-0.9-1.1
		c-0.5,0-2.3-4-2.1-4.9C296.7,168.2,295.4,169.2,294.2,171.1L294.2,171.1z M379.4,300.1c-0.8,1.1-1.5,2.2-1.4,2.4
		c0,0.3-0.2,0.7-0.5,0.9c-0.9,0.7-8.9,12.7-8.9,13.5c0,0.3-0.2,0.7-0.5,0.7c-0.3,0-1.6,1.8-2.9,4s-2.5,4-2.8,4
		c-0.3,0-0.5,0.4-0.5,0.9s-0.2,1.1-0.5,1.2c-0.7,0.3-4.2,5.7-4.2,6.5c0,0.3-0.5,0.7-1,1c-0.5,0.2-1,0.8-1,1.3c0,0.5-0.2,1.1-0.5,1.2
		c-0.3,0.1-1.5,1.9-2.8,3.9c-1.3,2-2.5,3.8-2.7,4s-1.1,1.5-2,3c-0.9,1.5-2,3.1-2.4,3.6c-0.5,0.4-1.1,1.4-1.3,2.1s-0.7,1.3-1.1,1.3
		c-0.4,0-0.6,0.2-0.3,0.4c0.2,0.3,0.1,0.8-0.4,1.3s-1.2,1.4-1.6,2.1c-0.5,0.7-2.2,3.4-3.9,5.9c-1.7,2.5-3,4.9-3,5.2
		c0,0.3-0.3,0.6-0.5,0.6c-0.3,0-1,0.8-1.5,1.8c-0.5,1.1-1.1,2-1.3,2.2s-3.4,4.8-7,10.4c-3.6,5.5-6.9,10.2-7.1,10.3
		c-0.3,0.1-0.5,0.5-0.2,0.9c0.2,0.3,0,0.6-0.3,0.6c-0.4,0-0.7,0.5-0.7,1c0,0.6-0.5,1.2-1,1.4c-0.5,0.3-0.8,0.7-0.6,1s0,0.6-0.3,0.6
		c-0.4,0-0.7,0.3-0.7,0.7s-0.5,1.4-1.1,2.3c-1.4,1.8-1.4,1.8-8.2,12.1c-3,4.4-5.7,8.5-6.1,8.9c-0.5,0.6,0.4,0.8,4.5,0.9
		c13.3,0.1,60.6,0.5,80.8,0.6l22.4,0.1l1.6-1.9c0.9-1.1,1.5-2.2,1.6-2.5c0-0.3,0.6-1.1,1.3-2c0.7-0.8,1.3-1.9,1.3-2.4
		s0.3-0.9,0.7-0.9c0.3,0,0.5-0.3,0.3-0.5c-0.2-0.3,0.3-0.9,0.9-1.5s1.1-1.1,1-1.3c-0.2-0.3,0.3-1,1-1.7c0.7-0.7,1.3-1.5,1.3-1.9
		c0-0.4,0.7-1.7,1.7-2.8c0.9-1.2,1.4-2.4,1.2-2.6c-0.3-0.2-0.1-0.4,0.3-0.4s2.9-3.5,5.6-7.7c2.7-4.2,5.5-8.3,6.2-9.1
		s1.1-1.3,0.9-1.3c-0.5,0,7.7-12.3,8.6-12.9c0.4-0.3,0.5-0.5,0.2-0.5c-0.3,0,0.1-0.8,0.8-1.8c0.8-1,1.4-2.2,1.4-2.8
		c0-0.8-3-4.2-11.6-13.1c-1.8-1.8-3.2-3.4-3.2-3.6s-0.7-1-1.5-1.8c-1.5-1.5-6.2-6.9-11.4-12.9c-1.3-1.4-2.9-3.2-3.6-4
		c-1.1-1.1-4.6-5.2-9.4-10.9c-1-1.2-4.2-5-11.4-14C380.2,296.9,381.1,297.7,379.4,300.1L379.4,300.1z"/>
	<line class="st2" x1="108.7" y1="523.1" x2="108.7" y2="523.1"/>
</g>
<g id="LOGO">
	<g id="矩形">
		<g class="st3">
			<path id="path-1_00000010288447804530774610000006654852751135276196_" class="st4" d="M50.5,28.8c0.7-7,16.9-8.6,48.7-4.9
				c20.1,2.4,47,11,79.5,18.9c13.1,3.2,35.7,7.9,67.6,14.2c43.5,5.7,72.2,9.4,86.1,11c12.3,1.4,83.2,6.6,96.1,14.1
				c28.8,16.7,70.1,47,86.2,71.6c9,13.7,43.4,45,44.3,55.1c0.2,2.5-8.1,47.4-22.2,71.3c-20.8,35.3-50.6,53.2-54.9,53.3
				c-1.1,0-36.5,34.6-62.7,74.1c-36.7,55.3-67.6,120.5-69.8,115.3c-1.2-2.8,9.6-48.3,20.5-104.3c7.5-38.5,11.9-86.5,25.2-111.1
				c4.6-8.6,18.6-7.4,37.2-7.9c15.4-0.4,30.8-2.2,36.6-4.1c5.8-1.9,10.9-4.8,13.9-8c9.7-9.9,18.4-19.4,27.5-31.7
				c11.7-15.7,12.7-40,12.3-40.3c-4.8-3.5-15.7-11.8-44.4-39.2c-19.1-18.2-43.1-46.8-93.7-63.7c-17.2-5.7-44.6-5.6-84.2-8.3
				c-27.8-1.9-82.2-4.5-163.2-7.9c17.3,18.3,32.4,29.1,45.3,32.3c24.2,6,50.4,3.3,69,5c33.3,3.1,50.8,7.6,48.9,10.8
				c-2,3.4-51.9,62.7-68.5,78.7c-7.5,7.2-39.4,50.6-49.4,48.3c-10.1-2.4,48-69.6,31.2-99.2c-4-7.1-19.9,0.2-42-3.6
				c-11.6-2-33.5-8.2-65.8-18.7c-24.9-12.8-40.9-26.9-47.9-42.3C53.9,98.7,42.8,73.9,41.8,57C41.4,49.3,44.3,39.9,50.5,28.8z"/>
		</g>
		<g>
			<path id="path-1_00000011731200628410627490000016991739685674472840_" class="st5" d="M50.5,28.8c0.7-7,16.9-8.6,48.7-4.9
				c20.1,2.4,47,11,79.5,18.9c13.1,3.2,35.7,7.9,67.6,14.2c43.5,5.7,72.2,9.4,86.1,11c12.3,1.4,83.2,6.6,96.1,14.1
				c28.8,16.7,70.1,47,86.2,71.6c9,13.7,43.4,45,44.3,55.1c0.2,2.5-8.1,47.4-22.2,71.3c-20.8,35.3-50.6,53.2-54.9,53.3
				c-1.1,0-36.5,34.6-62.7,74.1c-36.7,55.3-67.6,120.5-69.8,115.3c-1.2-2.8,9.6-48.3,20.5-104.3c7.5-38.5,11.9-86.5,25.2-111.1
				c4.6-8.6,18.6-7.4,37.2-7.9c15.4-0.4,30.8-2.2,36.6-4.1c5.8-1.9,10.9-4.8,13.9-8c9.7-9.9,18.4-19.4,27.5-31.7
				c11.7-15.7,12.7-40,12.3-40.3c-4.8-3.5-15.7-11.8-44.4-39.2c-19.1-18.2-43.1-46.8-93.7-63.7c-17.2-5.7-44.6-5.6-84.2-8.3
				c-27.8-1.9-82.2-4.5-163.2-7.9c17.3,18.3,32.4,29.1,45.3,32.3c24.2,6,50.4,3.3,69,5c33.3,3.1,50.8,7.6,48.9,10.8
				c-2,3.4-51.9,62.7-68.5,78.7c-7.5,7.2-39.4,50.6-49.4,48.3c-10.1-2.4,48-69.6,31.2-99.2c-4-7.1-19.9,0.2-42-3.6
				c-11.6-2-33.5-8.2-65.8-18.7c-24.9-12.8-40.9-26.9-47.9-42.3C53.9,98.7,42.8,73.9,41.8,57C41.4,49.3,44.3,39.9,50.5,28.8z"/>
		</g>
	</g>
	<text transform="matrix(1 0 0 1 117.502 350.1299)" class="st6 st7 st8">Print Rabbit</text>
	<text transform="matrix(1 0 0 1 133.8789 397.0898)" class="st9 st10 st11">粉兔先生</text>
	<g id="椭圆形">
		<g class="st12">
			
				<ellipse id="path-3_00000177455559745047820500000016373058590047720380_" class="st4" cx="399.8" cy="184.5" rx="25.3" ry="24.4"/>
		</g>
		<g>
			
				<ellipse id="path-3_00000007408706714785209480000015439053064754392227_" class="st5" cx="399.8" cy="184.5" rx="25.3" ry="24.4"/>
		</g>
	</g>
</g>
</svg>
